<?xml version="1.0" standalone="no"?>
<!DOCTYPE svg PUBLIC "-//W3C//DTD SVG 20010904//EN"
 "http://www.w3.org/TR/2001/REC-SVG-20010904/DTD/svg10.dtd">
<svg version="1.0" xmlns="http://www.w3.org/2000/svg"
 width="2000.000000pt" height="2000.000000pt" viewBox="0 0 2000.000000 2000.000000"
 preserveAspectRatio="xMidYMid meet">

<g transform="translate(0.000000,2000.000000) scale(0.100000,-0.100000)"
fill="#ffffff" stroke="none">
<path d="M1540 16291 c0 -64 2 -69 23 -75 31 -7 113 -80 141 -125 67 -105 141
-360 173 -593 16 -114 17 -452 21 -4488 2 -3166 0 -4414 -8 -4545 -31 -494
-154 -848 -314 -906 l-37 -13 3 -71 3 -70 910 0 910 0 3 67 3 67 -35 15 c-118
49 -213 211 -265 449 -58 267 -55 97 -58 3090 l-3 2747 1878 0 1878 0 62 63
c34 34 62 66 62 70 0 4 -873 7 -1940 7 l-1940 0 0 1643 c0 1059 4 1692 11
1782 33 436 132 704 294 796 l55 31 0 64 0 64 -915 0 -915 0 0 -69z"/>
<path d="M7770 16291 c0 -67 1 -69 31 -81 17 -7 52 -34 78 -59 75 -73 134
-216 185 -443 50 -227 49 -194 53 -1600 2 -860 7 -1328 14 -1328 5 0 37 12 72
26 254 105 635 214 898 259 52 8 106 18 121 21 l27 5 4 1172 c3 807 7 1198 15
1257 30 217 89 427 147 525 45 75 120 152 162 167 33 12 33 12 33 80 l0 68
-920 0 -920 0 0 -69z"/>
<path d="M14170 16349 c-683 -26 -1339 -243 -1861 -616 -244 -174 -438 -364
-614 -598 -274 -368 -436 -752 -507 -1206 -19 -125 -22 -184 -22 -444 0 -236
3 -325 17 -415 23 -149 22 -147 65 -160 378 -119 837 -353 1185 -602 483 -347
898 -799 1204 -1313 102 -169 223 -415 293 -590 28 -71 53 -131 55 -133 1 -2
148 -59 326 -126 471 -180 793 -324 1139 -510 633 -342 1118 -737 1460 -1191
320 -425 465 -791 488 -1233 27 -519 -93 -884 -406 -1237 -374 -422 -929 -711
-1612 -839 -374 -70 -644 -72 -980 -5 -367 73 -862 310 -1232 591 -42 32 -80
58 -84 58 -5 0 -60 -51 -123 -113 -64 -62 -147 -140 -184 -173 l-68 -61 137
-57 c617 -260 1166 -385 1824 -417 240 -11 416 -7 625 17 665 74 1288 331
1795 738 101 81 311 292 394 396 312 391 501 844 567 1360 18 138 18 593 1
715 -72 492 -211 846 -487 1235 -244 343 -589 665 -1025 956 -217 144 -343
215 -675 379 -339 168 -554 261 -905 391 -548 203 -748 288 -1107 467 -614
306 -1114 689 -1468 1122 -318 390 -481 726 -552 1138 -25 146 -25 534 0 662
64 321 170 526 411 798 307 344 813 636 1321 761 122 30 322 70 470 93 148 24
481 23 652 0 340 -47 710 -188 1003 -382 384 -255 697 -589 1048 -1116 285
-429 564 -1044 763 -1687 l32 -103 71 3 71 3 177 645 c97 355 182 668 189 697
l12 52 -53 88 c-222 364 -481 705 -710 933 -423 423 -983 727 -1646 894 -415
104 -954 154 -1474 135z"/>
<path d="M9475 12620 c-494 -59 -972 -201 -1385 -411 -378 -193 -685 -422
-1005 -750 -547 -561 -895 -1239 -1035 -2014 -49 -274 -55 -348 -55 -680 1 -266 4 -334 23 -475 104 -758 394 -1434 851 -1985 101 -122 333 -358 460 -468
507 -438 1120 -736 1796 -872 300 -60 388 -69 715 -69 373 0 586 22 905 95
739 170 1338 501 1870 1034 160 160 253 267 384 445 719 971 940 1234 594
3395 -363 1222 -1287 2172 -2504 2575 -286 95 -622 163 -929 190 -177 15 -513
10 -685 -10z m300 -169 c404 -60 893 -286 1261 -583 332 -268 657 -641 902
-1036 295 -476 523 -1009 641 -1502 135 -564 167 -1235 85 -1810 -78 -551
-251 -1027 -519 -1430 -337 -508 -722 -795 -1265 -945 -597 -165 -1020 -130
-1570 131 -652 310 -1232 891 -1641 1644 -261 482 -444 965 -533 1412 -205
1027 -66 2162 360 2922 327 586 713 922 1264 1102 145 48 353 92 500 107 118
12 394 6 515 -12z"/>
<path d="M9105 11935 c-289 -62 -546 -185 -747 -359 -86 -74 -225 -234 -233
-269 -3 -12 -4 -960 -3 -2107 l3 -2085 69 -115 c284 -474 673 -886 1067 -1130
53 -33 99 -60 102 -60 3 0 -3 25 -13 55 -26 76 -58 228 -78 365 -14 103 -16
404 -19 2923 -3 2650 -4 2807 -21 2806 -9 0 -66 -11 -127 -24z"/>
<path d="M10695 8878 c-10 -27 -375 -1393 -375 -1403 0 -19 130 -218 229 -348
245 -327 587 -674 920 -935 l84 -66 36 41 c134 151 312 456 394 674 l25 67
-124 168 c-346 467 -679 1022 -955 1592 l-108 222 -61 0 c-39 0 -62 -4 -65 -12z"/>
<path d="M5020 3845 c-135 -38 -210 -137 -197 -261 13 -127 89 -189 292 -239
88 -22 160 -58 181 -90 22 -33 23 -95 2 -127 -27 -40 -99 -70 -171 -71 -85 0
-136 16 -198 63 -59 44 -87 49 -112 22 -29 -32 -21 -67 24 -106 150 -128 408
-129 532 -1 68 70 83 185 37 275 -36 70 -94 105 -246 145 -174 46 -213 72 -221
148 -5 39 -1 48 27 80 71 82 245 75 359 -14 30 -24 46 -24 71 1 32 32 25 64 -22
104 -84 72 -241 103 -358 71z"/>
<path d="M6395 3847 c-199 -52 -325 -225 -325 -445 0 -145 42 -252 132 -343 73
-73 158 -110 266 -117 145 -8 248 32 341 133 88 97 127 213 118 355 -14 242
-178 414 -407 426 -43 2 -97 -2 -125 -9z m192 -122 c154 -46 248 -248 198 -430
-49 -182 -218 -277 -389 -219 -58 20 -133 91 -166 159 -22 44 -25 64 -25 161 0
107 1 113 35 179 40 79 86 120 162 146 65 23 119 24 185 4z"/>
<path d="M7635 3826 l-25 -25 0 -406 c0 -392 1 -406 20 -425 28 -28 64 -25 89
6 19 25 21 40 21 200 l0 174 169 0 c183 0 201 5 201 55 0 50 -18 55 -201 55
l-169 0 0 135 0 135 193 0 c158 0 197 3 215 16 25 17 29 51 8 80 -13 18 -30 19
-255 22 l-241 3 -25 -25z"/>
<path d="M8820 3837 c-31 -16 -39 -61 -14 -88 15 -17 32 -19 145 -19 l129 0 2
-377 3 -377 28 -16 c24 -13 30 -13 55 0 l27 16 3 377 2 377 129 0 c141 0 161 8
161 63 0 54 -16 57 -345 57 -221 0 -307 -4 -325 -13z"/>
<path d="M10104 3825 c-17 -17 -23 -31 -19 -48 3 -12 66 -198 139 -412 115
-336 137 -392 159 -405 52 -30 65 -13 174 246 56 132 105 238 109 237 4 -1 53
-109 109 -240 87 -203 106 -239 128 -247 56 -20 62 -9 211 428 l139 407 -20 27
c-24 33 -62 39 -90 15 -14 -12 -56 -123 -129 -343 l-107 -324 -91 231 c-50 126
-97 238 -105 247 -18 21 -64 21 -84 -1 -8 -10 -57 -121 -108 -246 l-93 -228 -43
123 c-23 68 -73 213 -109 323 -37 110 -73 208 -82 218 -21 24 -59 21 -88 -8z"/>
<path d="M12167 3838 c-20 -16 -347 -807 -347 -840 0 -32 18 -48 52 -48 34 0
44 16 94 138 l37 92 198 0 197 0 42 -101 c24 -55 49 -107 57 -115 32 -32 93 -6
93 39 0 12 -70 190 -156 397 -167 401 -181 431 -198 442 -17 12 -50 9 -69 -4z
m111 -370 c39 -95 70 -173 68 -175 -2 -2 -69 -2 -149 -1 l-145 3 71 173 c39 94
74 172 77 172 3 0 38 -77 78 -172z"/>
<path d="M13275 3839 c-11 -7 -23 -17 -27 -23 -4 -6 -8 -193 -8 -416 0 -223 4
-410 8 -416 9 -15 47 -34 66 -34 8 0 22 7 30 16 13 13 16 43 16 175 l0 159 150
0 c218 0 242 -14 255 -149 3 -41 13 -92 22 -113 30 -74 108 -112 146 -70 24 26
21 47 -12 85 -24 26 -31 46 -36 97 -9 89 -30 144 -70 179 l-33 29 38 31 c21 17
51 56 65 86 24 49 27 64 23 128 -5 80 -22 119 -70 168 -67 66 -99 74 -333 77
-148 2 -216 -1 -230 -9z m435 -124 c43 -22 70 -74 70 -134 0 -65 -18 -109 -59
-144 -32 -27 -33 -27 -197 -27 l-164 0 0 153 c0 85 3 157 7 160 3 4 76 7 160 7
116 0 161 -4 183 -15z"/>
<path d="M14665 3838 c-11 -6 -23 -16 -27 -22 -4 -6 -8 -194 -8 -418 0 -395 1
-409 20 -428 19 -19 33 -20 265 -20 232 0 246 1 265 20 26 26 25 46 -5 75 -24
25 -25 25 -225 25 l-200 0 0 140 0 140 175 0 c162 0 177 2 195 20 24 24 25 49 6
76 -13 17 -30 19 -195 22 l-182 3 3 127 3 127 208 5 c192 5 210 7 223 24 20 28
18 43 -11 71 l-24 25 -233 0 c-155 -1 -240 -4 -253 -12z"/>
</g>
</svg>